<svg width="231" height="58" viewBox="0 0 231 58" fill="none" xmlns="http://www.w3.org/2000/svg">
<path d="M-67 -48.884C-67 -63.2434 -55.3594 -74.884 -41 -74.884H227C241.359 -74.884 253 -63.2434 253 -48.884V107.116C253 121.475 241.359 133.116 227 133.116H-41C-55.3594 133.116 -67 121.475 -67 107.116V-48.884Z" fill="white"/>
<path d="M-67 -48.884C-67 -63.2434 -55.3594 -74.884 -41 -74.884H227C241.359 -74.884 253 -63.2434 253 -48.884V107.116C253 121.475 241.359 133.116 227 133.116H-41C-55.3594 133.116 -67 121.475 -67 107.116V-48.884Z" fill="white"/>
</svg>
