<svg width="1267" height="914" viewBox="0 0 1267 914" fill="none" xmlns="http://www.w3.org/2000/svg">
<mask id="mask0_0_205" style="mask-type:alpha" maskUnits="userSpaceOnUse" x="0" y="0" width="1267" height="914">
<path d="M499.796 270.495C505.694 194.996 477.775 117.531 416.039 62.4801C321.273 -21.6695 175.78 -20.883 81.8002 65.2327C-24.3699 161.965 -27.1224 326.725 73.1493 426.997C127.414 480.869 199.767 505.248 270.547 499.35C278.805 498.957 287.456 497.777 295.713 496.204C302.005 494.238 307.903 492.665 314.195 491.879C353.91 485.981 395.985 498.17 426.656 528.842C439.239 541.425 448.677 555.581 454.968 570.917C460.08 582.32 462.44 594.51 463.619 607.093C464.012 610.632 464.406 614.171 465.192 617.71C467.945 632.259 473.056 646.415 480.921 659.785C486.426 668.829 493.504 677.873 501.368 685.738C553.274 738.036 638.21 736.857 689.329 682.985C735.336 634.225 736.516 556.761 692.081 506.821C682.644 495.811 671.634 487.16 660.23 480.475C646.861 472.611 632.705 467.499 618.156 464.747C614.617 463.96 611.078 463.567 607.539 463.174C595.349 461.601 582.766 459.241 571.362 454.523C556.026 448.231 541.87 438.794 529.287 426.211C500.189 397.506 487.606 357.79 491.538 320.041C491.8 317.419 492.412 314.798 493.023 312.176C493.329 310.866 493.635 309.554 493.897 308.244C495.077 303.919 495.863 299.986 496.65 295.661C497.829 287.403 499.009 278.752 499.796 270.495Z" fill="url(#paint0_linear_0_205)"/>
<path d="M766.682 642.617C760.784 718.116 788.702 795.581 850.438 850.632C945.205 934.781 1090.7 933.995 1184.68 847.879C1290.85 751.147 1293.6 586.386 1193.33 486.115C1139.06 432.243 1066.71 407.863 995.931 413.762C987.673 414.155 979.022 415.335 970.764 416.908C964.473 418.874 958.575 420.447 952.283 421.233C912.568 427.131 870.493 414.941 839.821 384.27C827.238 371.687 817.801 357.531 811.509 342.195C806.397 330.792 804.038 318.602 802.858 306.019C802.465 302.48 802.072 298.941 801.286 295.402C798.533 280.853 793.421 266.697 785.557 253.327C780.052 244.283 772.974 235.239 765.109 227.374C713.204 175.076 628.268 176.255 577.149 230.127C531.142 278.886 529.962 356.351 574.396 406.29C583.834 417.301 594.844 425.952 606.247 432.636C619.617 440.501 633.773 445.613 648.322 448.365C651.861 449.152 655.4 449.545 658.939 449.938C671.129 451.511 683.712 453.87 695.116 458.589C710.451 464.881 724.607 474.318 737.19 486.901C766.289 515.606 778.872 555.322 774.94 593.071C774.678 595.693 774.066 598.314 773.454 600.935C773.148 602.246 772.843 603.557 772.58 604.868C771.401 609.193 770.614 613.125 769.828 617.451C768.648 625.709 767.468 634.359 766.682 642.617Z" fill="url(#paint1_linear_0_205)"/>
<path d="M948.196 387.293C887.331 387.293 837.991 337.952 837.991 277.087C837.991 216.223 887.331 166.882 948.196 166.882C1009.06 166.882 1058.4 216.223 1058.4 277.087C1058.4 337.952 1009.06 387.293 948.196 387.293Z" fill="url(#paint2_linear_0_205)"/>
<path d="M220.841 639.19C220.841 700.055 270.182 749.395 331.047 749.395C391.911 749.395 441.252 700.055 441.252 639.19C441.252 578.326 391.911 528.985 331.047 528.985C270.182 528.985 220.841 578.326 220.841 639.19Z" fill="url(#paint3_linear_0_205)"/>
</mask>
<g mask="url(#mask0_0_205)">
<g filter="url(#filter0_ii_0_205)">
<path fill-rule="evenodd" clip-rule="evenodd" d="M766.677 642.615C760.779 718.113 788.697 795.578 850.433 850.629C945.2 934.779 1090.69 933.992 1184.67 847.877C1290.84 751.144 1293.6 586.384 1193.32 486.112C1139.06 432.241 1066.71 407.861 995.926 413.759C987.668 414.152 979.017 415.332 970.76 416.905C964.468 418.871 958.57 420.444 952.278 421.23C912.563 427.129 870.488 414.939 839.816 384.267C827.233 371.684 817.796 357.528 811.504 342.193C806.393 330.789 804.033 318.599 802.854 306.016L802.853 306.015C802.46 302.477 802.067 298.938 801.281 295.399C798.528 280.85 793.416 266.694 785.552 253.324C780.047 244.28 772.969 235.236 765.104 227.372C713.199 175.073 628.263 176.253 577.144 230.124C531.137 278.884 529.957 356.349 574.391 406.288C583.829 417.298 594.839 425.949 606.242 432.634C619.612 440.498 633.768 445.61 648.317 448.363C651.856 449.149 655.395 449.542 658.933 449.936L658.934 449.936C671.124 451.509 683.707 453.868 695.111 458.587C710.446 464.878 724.602 474.315 737.185 486.899C766.284 515.604 778.867 555.319 774.935 593.069C774.673 595.69 774.061 598.312 773.449 600.933C773.143 602.244 772.838 603.555 772.575 604.865C771.396 609.191 770.609 613.123 769.823 617.448C768.643 625.706 767.464 634.357 766.677 642.615ZM499.788 270.493C505.686 194.994 477.768 117.529 416.032 62.4781C321.265 -21.6715 175.773 -20.885 81.7925 65.2307C-24.3776 161.963 -27.13 326.724 73.1416 426.995C127.406 480.867 199.759 505.246 270.539 499.348C278.797 498.955 287.448 497.775 295.706 496.202C301.997 494.236 307.895 492.663 314.187 491.877C353.902 485.979 395.977 498.169 426.649 528.84C439.232 541.423 448.669 555.579 454.961 570.915C460.072 582.318 462.432 594.508 463.611 607.091L463.612 607.093C464.005 610.631 464.398 614.17 465.184 617.708C467.937 632.257 473.049 646.413 480.913 659.783C486.418 668.827 493.496 677.871 501.361 685.736C553.266 738.034 638.202 736.855 689.321 682.983C735.328 634.223 736.508 556.759 692.074 506.819C682.636 495.809 671.626 487.158 660.223 480.473C646.853 472.609 632.697 467.497 618.148 464.745C614.609 463.958 611.07 463.565 607.532 463.172L607.531 463.172C595.341 461.599 582.758 459.239 571.354 454.521C556.019 448.229 541.863 438.792 529.28 426.209C500.181 397.504 487.598 357.788 491.53 320.039C491.792 317.417 492.404 314.796 493.016 312.175C493.322 310.864 493.627 309.553 493.89 308.242C495.069 303.917 495.856 299.984 496.642 295.659C497.822 287.401 499.002 278.75 499.788 270.493ZM948.185 387.293C887.321 387.293 837.98 337.953 837.98 277.088C837.98 216.223 887.321 166.883 948.185 166.883C1009.05 166.883 1058.39 216.223 1058.39 277.088C1058.39 337.953 1009.05 387.293 948.185 387.293ZM220.84 639.19C220.84 700.054 270.18 749.395 331.045 749.395C391.909 749.395 441.25 700.054 441.25 639.19C441.25 578.325 391.909 528.984 331.045 528.984C270.18 528.984 220.84 578.325 220.84 639.19Z" fill="url(#paint4_radial_0_205)"/>
<path fill-rule="evenodd" clip-rule="evenodd" d="M766.677 642.615C760.779 718.113 788.697 795.578 850.433 850.629C945.2 934.779 1090.69 933.992 1184.67 847.877C1290.84 751.144 1293.6 586.384 1193.32 486.112C1139.06 432.241 1066.71 407.861 995.926 413.759C987.668 414.152 979.017 415.332 970.76 416.905C964.468 418.871 958.57 420.444 952.278 421.23C912.563 427.129 870.488 414.939 839.816 384.267C827.233 371.684 817.796 357.528 811.504 342.193C806.393 330.789 804.033 318.599 802.854 306.016L802.853 306.015C802.46 302.477 802.067 298.938 801.281 295.399C798.528 280.85 793.416 266.694 785.552 253.324C780.047 244.28 772.969 235.236 765.104 227.372C713.199 175.073 628.263 176.253 577.144 230.124C531.137 278.884 529.957 356.349 574.391 406.288C583.829 417.298 594.839 425.949 606.242 432.634C619.612 440.498 633.768 445.61 648.317 448.363C651.856 449.149 655.395 449.542 658.933 449.936L658.934 449.936C671.124 451.509 683.707 453.868 695.111 458.587C710.446 464.878 724.602 474.315 737.185 486.899C766.284 515.604 778.867 555.319 774.935 593.069C774.673 595.69 774.061 598.312 773.449 600.933C773.143 602.244 772.838 603.555 772.575 604.865C771.396 609.191 770.609 613.123 769.823 617.448C768.643 625.706 767.464 634.357 766.677 642.615ZM499.788 270.493C505.686 194.994 477.768 117.529 416.032 62.4781C321.265 -21.6715 175.773 -20.885 81.7925 65.2307C-24.3776 161.963 -27.13 326.724 73.1416 426.995C127.406 480.867 199.759 505.246 270.539 499.348C278.797 498.955 287.448 497.775 295.706 496.202C301.997 494.236 307.895 492.663 314.187 491.877C353.902 485.979 395.977 498.169 426.649 528.84C439.232 541.423 448.669 555.579 454.961 570.915C460.072 582.318 462.432 594.508 463.611 607.091L463.612 607.093C464.005 610.631 464.398 614.17 465.184 617.708C467.937 632.257 473.049 646.413 480.913 659.783C486.418 668.827 493.496 677.871 501.361 685.736C553.266 738.034 638.202 736.855 689.321 682.983C735.328 634.223 736.508 556.759 692.074 506.819C682.636 495.809 671.626 487.158 660.223 480.473C646.853 472.609 632.697 467.497 618.148 464.745C614.609 463.958 611.07 463.565 607.532 463.172L607.531 463.172C595.341 461.599 582.758 459.239 571.354 454.521C556.019 448.229 541.863 438.792 529.28 426.209C500.181 397.504 487.598 357.788 491.53 320.039C491.792 317.417 492.404 314.796 493.016 312.175C493.322 310.864 493.627 309.553 493.89 308.242C495.069 303.917 495.856 299.984 496.642 295.659C497.822 287.401 499.002 278.75 499.788 270.493ZM948.185 387.293C887.321 387.293 837.98 337.953 837.98 277.088C837.98 216.223 887.321 166.883 948.185 166.883C1009.05 166.883 1058.39 216.223 1058.39 277.088C1058.39 337.953 1009.05 387.293 948.185 387.293ZM220.84 639.19C220.84 700.054 270.18 749.395 331.045 749.395C391.909 749.395 441.25 700.054 441.25 639.19C441.25 578.325 391.909 528.984 331.045 528.984C270.18 528.984 220.84 578.325 220.84 639.19Z" fill="#302F2F"/>
</g>
</g>
<defs>
<filter id="filter0_ii_0_205" x="-18.3594" y="-24.632" width="1311.18" height="969.857" filterUnits="userSpaceOnUse" color-interpolation-filters="sRGB">
<feFlood flood-opacity="0" result="BackgroundImageFix"/>
<feBlend mode="normal" in="SourceGraphic" in2="BackgroundImageFix" result="shape"/>
<feColorMatrix in="SourceAlpha" type="matrix" values="0 0 0 0 0 0 0 0 0 0 0 0 0 0 0 0 0 0 127 0" result="hardAlpha"/>
<feOffset dx="-18.3516" dy="32.1153"/>
<feGaussianBlur stdDeviation="38.9971"/>
<feComposite in2="hardAlpha" operator="arithmetic" k2="-1" k3="1"/>
<feColorMatrix type="matrix" values="0 0 0 0 1 0 0 0 0 1 0 0 0 0 1 0 0 0 0.87 0"/>
<feBlend mode="lighten" in2="shape" result="effect1_innerShadow_0_205"/>
<feColorMatrix in="SourceAlpha" type="matrix" values="0 0 0 0 0 0 0 0 0 0 0 0 0 0 0 0 0 0 127 0" result="hardAlpha"/>
<feOffset dx="26.35" dy="-24.63"/>
<feGaussianBlur stdDeviation="15.3705"/>
<feComposite in2="hardAlpha" operator="arithmetic" k2="-1" k3="1"/>
<feColorMatrix type="matrix" values="0 0 0 0 0.168627 0 0 0 0 0.180392 0 0 0 0 0.239216 0 0 0 0.9 0"/>
<feBlend mode="multiply" in2="effect1_innerShadow_0_205" result="effect2_innerShadow_0_205"/>
</filter>
<linearGradient id="paint0_linear_0_205" x1="214.72" y1="1118.58" x2="1082.2" y2="205.444" gradientUnits="userSpaceOnUse">
<stop offset="0.243977" stop-opacity="0"/>
<stop offset="1"/>
</linearGradient>
<linearGradient id="paint1_linear_0_205" x1="214.72" y1="1118.58" x2="1082.2" y2="205.444" gradientUnits="userSpaceOnUse">
<stop offset="0.243977" stop-opacity="0"/>
<stop offset="1"/>
</linearGradient>
<linearGradient id="paint2_linear_0_205" x1="214.72" y1="1118.58" x2="1082.2" y2="205.444" gradientUnits="userSpaceOnUse">
<stop offset="0.243977" stop-opacity="0"/>
<stop offset="1"/>
</linearGradient>
<linearGradient id="paint3_linear_0_205" x1="214.72" y1="1118.58" x2="1082.2" y2="205.444" gradientUnits="userSpaceOnUse">
<stop offset="0.243977" stop-opacity="0"/>
<stop offset="1"/>
</linearGradient>
<radialGradient id="paint4_radial_0_205" cx="0" cy="0" r="1" gradientUnits="userSpaceOnUse" gradientTransform="translate(1369.84 309.432) rotate(178.087) scale(479.64 899.949)">
<stop stop-color="#949494"/>
<stop offset="0.635171" stop-color="#282828"/>
<stop offset="1" stop-color="#1D1D1D"/>
</radialGradient>
</defs>
</svg>
