<svg style="width:0; height:0; visibility: hidden;" xmlns="http://www.w3.org/2000/svg">
	<symbol id="svg-belarusse" viewBox="0 0 42 32">
	
		<path d="M39.4843 15.6041C38.6066 15.3794 38.1678 13.582 36.8512 13.1326C35.5346 12.6833 35.9735 11.1105 34.8764 10.4365C33.7792 9.76243 34.4375 8.41436 34.4375 7.29097C34.4375 6.16758 34.6569 4.59485 33.9986 4.14549C33.3403 3.92082 30.9266 2.34807 29.8294 3.0221C28.7323 3.47146 28.074 3.92082 27.4157 3.0221C26.9768 2.12339 26.3185 1.67404 25.2214 1.89871C24.1242 2.12339 23.466 1.67403 22.8077 1.22467L22.5882 1C22.1494 1 21.4911 1.22467 21.2717 1.67402C20.6134 2.12338 20.394 3.24678 19.5162 3.24678C18.6385 3.24678 17.5413 2.79742 16.4442 3.69613C15.347 4.59484 15.1276 5.49355 15.347 6.16758C15.5664 6.84161 15.5665 7.96501 14.9082 7.96501C14.0305 7.96501 14.2499 8.86372 13.3722 9.0884C12.4944 9.31308 11.1778 10.6611 11.1778 11.1105C10.9584 11.7845 10.9584 13.3573 10.5196 13.3573C10.0807 13.3573 8.10581 13.582 7.66695 14.256C7.22809 14.93 6.5698 15.6041 5.47265 15.3794C5.03379 15.1547 3.49778 15.1547 2.1812 15.1547C2.1812 15.3794 2.1812 15.3794 2.1812 15.6041C1.74234 16.9521 2.18124 18.3002 2.83953 18.9742C3.71725 19.6483 3.93669 22.5691 3.05897 22.7937C2.18125 23.2431 0.425781 24.3665 0.425781 25.0405C0.425781 25.7146 2.18125 26.3886 1.96182 27.2873C1.74239 27.9613 1.74239 28.86 1.96182 29.7588C2.83954 29.7588 3.71721 29.9834 4.3755 29.3094C5.25322 28.4107 5.47269 27.512 7.22813 27.512C8.98357 27.512 14.0305 27.512 14.6887 28.4107C15.5665 29.3094 17.5413 28.6354 18.6385 29.0847C19.7356 29.5341 21.4911 30.2081 21.7105 29.5341C21.93 28.86 23.466 30.4328 24.5631 29.7588C25.6603 29.0847 26.7574 31.1068 27.4157 30.6575C28.074 30.2081 30.7072 30.2081 31.3655 30.8821C32.0237 31.5562 32.2432 30.2081 32.2432 29.3094C32.2432 28.4107 34.8764 26.3886 34.8764 26.3886C34.8764 26.3886 36.6318 26.3886 37.7289 25.7146C37.5095 25.2652 37.2901 24.8158 37.0707 23.9171C36.6318 21.6704 35.754 20.3223 36.4123 19.6483C37.0706 18.9742 38.6066 20.547 39.4843 20.0976C40.3621 19.6483 41.8981 18.9742 41.6786 18.0755C41.8981 16.9521 40.3621 15.8287 39.4843 15.6041Z" fill="currentColor" stroke="#302F2F" stroke-width="0.25" stroke-miterlimit="10" />
	</symbol>
	<symbol id="svg-china" viewBox="0 0 266 186">
	<g>
	
		<path d="M264.828 33.1535C265.047 30.6821 262.195 31.5808 261.317 32.2548C260.439 32.9289 257.806 32.2548 256.928 33.8276C256.051 35.4003 254.734 34.5016 252.979 34.7263C251.223 34.951 248.59 34.2769 248.59 32.9288C248.809 31.8055 247.493 30.4574 247.712 29.1093C247.932 27.5366 245.957 28.2106 244.64 26.8625C243.324 25.5145 240.69 24.6158 240.252 24.8404C239.813 25.0651 238.057 23.2677 235.863 23.2677C233.669 23.043 233.888 21.6949 234.108 20.7962C234.327 19.8975 232.352 16.9767 231.913 15.4039C231.474 13.8312 229.938 13.6065 229.28 10.0117C228.622 6.64149 226.866 7.5402 227.086 5.96745C227.525 4.3947 224.891 3.49599 224.233 2.59728C223.575 1.69857 220.942 2.14793 218.967 1.02454C216.992 -0.0988543 215.895 0.799855 213.92 0.125821C212.164 -0.323536 207.995 0.57517 207.337 0.57517C206.898 0.57517 203.607 -0.0988576 201.632 2.3726C199.876 4.84406 201.193 4.84406 202.071 4.84406C202.948 4.84406 203.168 7.31553 203.387 7.98956C203.607 8.88827 202.071 10.0117 201.412 10.2363C200.754 10.461 198.999 13.3818 198.779 14.5052C198.56 15.6286 196.365 18.3248 196.585 19.2235C196.804 20.1222 195.488 21.0209 194.61 21.2456C193.732 21.4703 191.319 23.2677 190.441 23.4924C189.563 23.717 186.491 23.2677 186.052 22.369C185.833 22.1443 185.613 21.9196 185.175 21.6949L181.664 28.8846L181.444 31.1314C181.444 31.1314 179.25 31.8055 180.786 33.3782C182.541 35.1756 182.761 33.6029 185.394 33.6029C188.027 33.6029 189.124 35.625 189.563 34.2769C190.221 32.9288 192.416 32.0301 193.732 33.6029C195.049 35.4003 199.657 38.3211 199.438 39.6692C199.218 41.0173 196.585 40.7926 194.829 40.3432C193.074 39.6692 190.88 41.4666 189.124 41.4666C187.369 41.4666 185.394 42.1406 183.639 43.7134C181.883 45.5108 182.322 47.3083 179.689 47.533C177.056 47.7576 175.958 47.5329 173.106 49.555C170.253 51.5771 167.181 50.6784 166.084 50.2291C164.987 49.555 163.012 49.3304 161.915 51.3525C160.818 53.3746 163.231 54.2733 163.012 56.5201C162.793 58.7669 159.94 58.3175 157.526 60.789C155.332 63.4851 151.602 64.6085 149.627 64.3838C147.652 64.1591 143.483 63.0357 139.752 64.6085C136.022 66.4059 133.389 68.8774 132.072 68.6527C130.756 68.428 130.756 66.6306 128.561 66.8553C126.587 67.0799 125.489 66.6306 123.953 65.7319C122.637 64.8332 121.32 66.4059 119.126 64.6085C116.932 62.811 112.982 63.2604 111.226 62.811C109.471 62.5864 102.888 62.8111 100.694 62.5864C98.4995 62.3617 95.208 63.2604 94.9886 61.9123C94.7691 60.789 93.0137 59.8902 92.3554 57.1941C91.6971 54.4979 90.3805 53.5992 88.8445 53.3746C87.5279 53.1499 87.3085 51.5772 85.992 51.3525C85.3337 51.3525 84.6754 49.3303 82.7005 49.3303C80.7256 49.3303 73.7039 48.4317 72.8261 46.8589C71.729 45.2862 73.9233 44.8368 73.9233 43.264C73.9233 41.6913 75.0204 39.4445 74.1427 38.7705C73.2649 38.0964 71.9484 36.7484 71.729 35.4003C71.5095 34.0522 69.3152 32.2548 67.9986 32.2548C66.4626 32.2548 65.3655 31.1314 64.0489 30.008C62.7323 28.8846 61.4157 28.8846 60.9768 25.7391C60.9768 25.5145 60.9769 25.2898 60.7575 25.2898C60.3186 25.2898 59.4409 25.0651 59.002 25.0651C58.5632 25.0651 58.1243 24.8404 57.9049 24.3911C57.466 25.7392 56.3688 26.1885 56.3688 27.3119C56.3688 28.4353 55.9299 29.7833 54.3939 29.7833C52.8579 29.7833 51.5413 30.9067 51.5413 33.1535C51.5413 35.4003 52.8579 35.8497 52.1996 36.7484C51.5413 37.8718 48.9082 38.7705 48.0304 38.3211C47.1527 37.8718 45.3973 38.0965 43.8613 37.8718C42.3253 37.6471 41.2281 35.8497 40.7893 37.8718C40.3504 39.8939 37.2783 45.9602 38.1561 46.6342C38.8144 47.3083 39.4727 48.6563 38.1561 48.6563C36.8395 48.6563 35.5229 48.4316 35.0841 47.7576C34.4258 47.0836 32.4509 48.6563 30.9149 48.6563C30.2566 48.6563 27.404 50.0044 28.2817 50.4537C29.1594 50.9031 29.1594 53.3746 29.1594 54.2733C29.1594 55.172 31.3538 58.3175 30.9149 59.2162C30.476 60.1149 28.5011 61.2383 28.5011 62.5864C28.5011 63.9345 28.94 65.0579 28.2817 65.5072C27.6234 65.7319 25.4291 66.6306 24.332 67.5293C23.2348 68.428 21.4794 68.428 20.8211 69.5514C20.1628 70.6748 19.285 71.7982 17.3102 71.5735C15.5547 71.3488 14.677 71.1242 13.3604 72.6969C12.0439 74.4943 11.605 73.5956 10.7273 74.4943C9.84953 75.3931 8.75242 73.8203 8.09413 73.5956C7.21641 73.3709 6.33866 74.4943 5.46094 74.4943C4.58322 74.4943 3.92491 75.8424 3.04719 76.0671C2.16947 76.2918 1.07233 76.0671 1.07233 77.1905C1.07233 77.8645 0.852924 78.7632 0.414062 79.4373L1.07233 83.2568C1.07233 83.2568 5.24151 84.6049 5.46094 86.1776C5.68037 87.5257 6.33865 92.2439 6.33865 92.2439C6.33865 92.2439 6.33863 92.2439 6.1192 92.2439C7.87465 93.592 10.069 95.1647 10.069 95.6141C10.069 96.2881 10.2884 98.0855 12.2633 98.9843C13.5799 99.6583 14.8965 100.332 15.7742 100.782C15.7742 100.557 15.9936 100.332 15.9936 100.332L17.7491 100.108C17.7491 100.108 18.1879 100.332 18.8462 101.006C19.2851 99.6583 22.3571 98.0856 23.8931 98.0856C25.6485 98.0856 29.3789 101.231 28.94 102.354C28.5012 103.478 25.868 107.522 24.5514 107.747C24.1126 107.971 23.4542 107.971 22.5765 107.971C22.3571 108.645 22.3571 109.319 22.3571 109.544C22.3571 110.443 23.8931 111.791 24.7708 113.364C25.6485 114.936 23.4543 116.06 22.1377 114.936C20.8211 113.813 20.3822 116.06 21.0405 116.959C21.6988 117.857 21.4793 120.329 22.5765 120.553C23.8931 120.778 24.7708 123.25 26.3068 123.25C27.6234 123.25 28.94 125.496 28.94 125.496C28.94 125.496 30.9149 126.844 30.9149 127.518V127.743C32.4509 127.518 33.548 127.518 33.548 126.844C33.7674 126.17 35.7423 126.17 37.0589 127.518C38.3755 128.866 44.0807 132.461 46.0556 134.259C48.0305 136.056 52.858 137.854 54.6134 137.854C56.3689 137.854 57.9048 138.977 60.3186 138.977C60.7574 138.977 60.9769 138.977 61.4157 138.977C61.8546 138.528 62.2935 138.528 62.9518 137.854C63.61 136.73 64.7071 138.752 64.2683 140.1C64.0489 140.774 64.2684 141.448 64.4878 142.122C64.9267 141.673 65.1461 140.999 65.5849 140.325C66.4627 138.078 67.7792 138.303 68.6569 137.629C69.5346 136.955 70.4124 137.18 72.1679 138.303C73.9233 139.202 74.5816 137.18 77.2147 139.651C77.6536 139.426 78.5313 139.202 78.7508 139.202C79.1896 139.202 80.0674 138.078 80.9451 137.18C81.8228 136.281 81.6034 135.157 82.7005 135.382C83.7977 135.607 84.2365 134.034 86.4308 132.911C88.6252 131.563 90.5999 133.585 91.6971 132.686C92.7943 131.787 93.8914 131.338 93.8914 132.237C93.8914 133.135 95.208 134.259 95.6468 135.157C95.8663 136.056 97.8412 136.506 98.28 136.506C98.4994 136.281 98.9383 136.281 98.9383 136.056C100.035 135.157 101.791 136.056 101.791 137.404C101.791 138.528 101.791 139.876 102.669 139.876C103.546 139.876 104.424 139.876 104.424 142.122C104.424 144.369 105.302 146.841 103.327 148.638C101.571 150.436 99.3772 154.03 99.8161 154.929C100.255 155.828 99.1578 157.85 100.694 157.176C102.01 156.502 105.302 157.176 104.644 158.075C104.205 158.973 104.644 161.669 105.96 161.669C107.277 161.669 107.935 162.568 107.716 163.692C107.277 164.815 106.618 166.612 107.716 166.612C108.813 166.612 110.349 166.612 110.129 167.736C109.91 168.859 111.007 169.983 112.763 169.309C113.86 168.859 114.518 168.41 114.737 168.859C115.615 168.859 115.615 170.657 116.932 170.881C118.248 171.331 117.59 167.96 117.151 167.286C116.712 166.837 117.371 164.366 117.809 165.04C118.248 165.489 120.004 165.04 120.662 163.916C121.54 162.793 123.295 164.815 123.953 163.467C124.612 162.119 126.148 164.366 127.684 163.467C129.22 162.568 129.878 164.141 130.536 163.018C131.195 161.67 133.389 160.097 134.047 160.771C134.486 161.22 134.925 162.344 137.778 162.793C140.63 163.242 139.094 164.59 139.094 165.489C139.094 166.388 142.166 168.635 143.483 168.859C143.702 168.859 143.922 169.084 144.36 169.533C145.238 169.084 146.774 169.758 146.994 168.859C147.432 167.736 148.749 167.96 149.407 169.084C150.066 169.983 150.724 170.207 152.04 169.084C153.357 167.96 154.015 170.207 153.138 170.881C152.26 171.555 152.918 173.577 154.015 174.926C155.332 176.049 155.551 174.251 155.113 172.903C154.893 171.78 157.307 170.432 161.257 169.084C165.426 167.736 169.814 164.59 169.814 163.916C169.814 163.242 172.667 165.04 174.203 164.141C175.52 163.018 180.567 163.018 181.883 162.793C183.2 162.793 183.2 161.669 184.516 160.546C185.833 159.423 185.613 158.973 187.149 158.299C188.685 157.85 189.783 156.277 189.783 155.603C189.783 154.704 192.635 154.48 192.855 153.581C192.855 152.682 195.049 152.458 195.049 151.334C195.049 150.211 196.365 150.436 197.024 149.762C197.682 148.863 196.585 146.616 197.682 146.391C198.779 146.167 197.243 144.819 197.024 144.145C196.804 143.471 198.999 143.471 200.096 142.572C201.193 141.898 201.851 140.774 202.071 139.426C202.29 138.078 204.046 136.955 204.923 136.73C205.801 136.506 206.02 134.483 205.801 133.135C205.582 131.563 207.337 132.012 206.459 131.338C205.582 130.664 206.679 129.091 208.434 128.642C209.97 128.192 207.556 127.518 206.679 128.192C205.801 128.866 204.923 126.17 204.046 127.294C203.168 128.192 200.973 126.62 202.51 126.395C204.046 126.17 206.24 124.373 207.118 124.148C207.995 123.924 205.582 121.677 204.484 121.677C203.168 121.677 201.851 118.756 200.535 118.756C199.218 118.756 201.412 117.857 202.948 118.531C204.484 119.43 206.24 120.104 206.898 119.43C207.556 118.756 204.265 116.06 203.168 115.161C202.071 114.262 203.168 112.914 202.29 112.465C201.632 112.016 200.096 108.421 199.438 107.073C198.999 105.5 196.146 105.275 195.488 104.377C194.829 103.478 195.488 101.006 197.682 100.108C199.657 99.2089 198.779 97.4115 199.876 97.6362C200.754 97.8609 201.632 97.4115 202.29 95.8388C202.948 94.266 204.265 95.1647 204.923 94.4907C205.582 93.592 208.873 93.8167 209.97 92.918C211.067 92.0192 208.873 89.5478 207.337 89.9971C205.801 90.4465 204.046 89.7724 202.948 88.1997C201.851 86.627 199.218 91.1205 197.024 92.2439C194.829 93.1426 193.513 90.4465 194.391 88.649C195.049 86.8516 192.855 86.8516 189.783 87.0763C186.93 87.301 188.027 81.684 189.783 81.4594C191.538 81.2347 194.171 83.0321 195.268 79.8866C196.365 76.5164 197.901 79.2126 200.315 76.2917C202.729 73.3709 205.582 71.5735 207.776 73.3709C209.97 75.1684 205.582 77.8645 204.704 79.4373C204.046 81.01 205.362 81.684 204.046 82.8074C202.729 84.1555 204.484 84.3802 207.118 82.8074C209.751 81.2347 212.823 79.2126 215.236 78.0892C215.895 77.8645 216.553 77.8645 217.431 77.8645C217.87 76.9658 218.089 76.0671 218.747 75.8424C220.503 74.9437 226.208 72.2476 227.086 71.1242C227.963 70.0008 228.841 67.9787 229.938 67.9787C231.035 67.9787 231.035 69.102 232.791 69.102C234.546 69.102 236.521 69.7761 235.644 68.2033C234.766 66.8553 235.424 66.8553 237.399 66.4059C239.374 66.1812 239.154 64.1591 240.471 64.1591C241.788 64.1591 241.568 60.5643 243.104 60.5643C244.421 60.5643 245.079 62.5864 246.834 61.9123C247.054 61.6877 247.493 61.9124 248.151 62.137C248.59 61.9124 248.809 61.463 249.248 61.2383C249.029 59.4409 249.248 57.8681 249.029 56.9694C248.371 55.3967 249.029 54.2733 248.809 53.1499C248.59 52.2512 248.371 50.0044 249.468 50.0044C250.565 50.0044 251.881 47.3082 253.198 48.207C254.515 49.1057 257.148 49.3304 257.148 48.207C257.148 47.0836 258.903 46.8589 259.342 45.2862C259.561 43.7134 261.536 43.2641 261.975 41.916C262.414 40.3432 263.072 36.9731 264.389 36.0743C266.144 36.0743 264.608 35.4003 264.828 33.1535ZM200.973 159.647C199.437 165.04 202.948 167.736 203.387 167.286C204.704 166.388 209.97 154.929 208.873 153.356C207.556 151.784 202.29 154.255 200.973 159.647ZM154.235 177.846C152.479 177.846 148.31 180.318 149.846 183.913C151.602 187.508 157.087 185.036 157.307 183.463C157.526 181.891 159.94 179.419 159.721 178.071C159.501 177.172 155.99 177.846 154.235 177.846Z" fill="currentColor" />
		
		
	</g>
	</symbol>
</svg>