<svg style="width:0; height:0; visibility: hidden;" xmlns="http://www.w3.org/2000/svg">
	<symbol id="svg-logo" viewBox="0 0 159 25">
	<g>
		<path d="M26.0902 0.194513C26.4352 0.378921 26.4642 0.623768 26.4615 3.33234C26.4598 4.94818 26.376 6.40065 26.2752 6.55996C26.1173 6.80924 24.8337 6.85752 17.0482 6.90695C10.9625 6.94557 7.92231 7.03227 7.75379 7.17208C7.43396 7.43681 7.42815 8.70449 7.74489 9.12274C7.96101 9.40814 8.76687 9.44811 15.3391 9.49812C22.3014 9.55103 22.7441 9.57555 23.6844 9.96078C25.1677 10.5683 25.9559 11.2624 26.679 12.5983L27.33 13.8011L27.398 16.9872C27.4593 19.8576 27.4254 20.2809 27.0574 21.2587C26.5499 22.6065 25.5585 23.6467 24.1556 24.3035L23.0784 24.8076L12.0499 24.8627C5.98419 24.8928 0.825535 24.8694 0.586003 24.8107C0.15705 24.7053 0.150665 24.6578 0.150665 21.613V18.5223L0.64695 18.3341C0.944334 18.2213 4.86218 18.1458 10.4241 18.1458H19.7049L19.8631 17.7192C20.0284 17.2736 19.9767 15.9385 19.7823 15.6243C19.7153 15.5162 16.9547 15.4424 12.9734 15.4424C8.99421 15.4424 5.78374 15.3567 5.06127 15.2312C2.80023 14.8382 0.928469 13.2506 0.342215 11.2285C-0.00334656 10.0369 -0.116729 6.5924 0.13983 5.07755C0.631471 2.17298 2.41268 0.598083 5.66494 0.192386C7.52412 -0.0397169 25.6555 -0.0375896 26.0902 0.194513Z" fill="currentColor" />
		<path fill-rule="evenodd" clip-rule="evenodd" d="M49.6369 0.550777C50.9184 1.20325 51.9162 2.56381 53.6805 6.06524C54.5938 7.87726 55.4043 9.44676 55.4821 9.55296C55.5597 9.65916 56.8241 12.0922 58.2918 14.9597C59.7598 17.8272 61.4268 21.0633 61.9967 22.151C63.5542 25.1243 63.768 24.9219 59.1356 24.86L55.2383 24.8076L54.1608 22.7318L53.0831 20.656H45.9967H38.9104L37.9229 22.7801L36.9353 24.9042H32.9575C29.0567 24.9042 28.9797 24.8965 28.9797 24.5021C28.9797 24.1463 36.7101 8.51236 38.9971 4.24279C41.0383 0.432408 41.9046 -0.0530383 46.4197 0.0836744C48.3969 0.143534 49.0126 0.23294 49.6369 0.550777ZM41.7496 14.9857C41.7496 14.9469 42.6199 13.1156 43.6835 10.9162C45.2155 7.74827 45.6878 6.93051 45.9569 6.98013C46.1798 7.02126 46.9748 8.36947 48.2708 10.9046C49.3566 13.0287 50.2489 14.8317 50.254 14.9114C50.2588 14.9912 48.3474 15.0562 46.0062 15.0562C43.6651 15.0562 41.7496 15.0246 41.7496 14.9857Z" fill="currentColor" />
		<path d="M64.7826 0.192386C65.0028 0.309982 66.9102 3.93943 69.4887 9.14649C71.8734 13.9627 73.9135 17.9581 74.0222 18.0251C74.131 18.0921 74.3434 18.0996 74.4945 18.0419C74.6456 17.984 75.7146 15.9634 76.8703 13.5518C82.2557 2.31221 83.3212 0.240085 83.7775 0.118047C84.3521 -0.0356578 90.5763 -0.040874 90.9752 0.111866C91.1436 0.17636 91.2813 0.39765 91.2813 0.603878C91.2813 0.945853 86.3125 10.9842 82.0247 19.3044C79.2442 24.7001 78.9739 24.9048 74.629 24.903C71.446 24.9019 70.6523 24.7404 69.6913 23.8981C68.6664 23 68.1696 22.1736 65.3629 16.6976C62.5384 11.1869 59.6257 5.53075 58.1676 2.72486C57.1563 0.778633 57.0375 0.265764 57.5669 0.1277C58.2688 -0.0553561 64.4222 -0.000325084 64.7826 0.192386Z" fill="currentColor" />
		<path fill-rule="evenodd" clip-rule="evenodd" d="M117.832 0.445926C119.694 0.873636 120.744 1.38901 121.701 2.34465C123.641 4.28199 124.053 6.32998 123.928 13.4126C123.831 18.8712 123.713 19.6274 122.671 21.4806C121.965 22.738 120.643 23.7636 118.97 24.3525C117.714 24.7947 117.535 24.8038 108.878 24.864C101.572 24.9148 99.8242 24.8752 98.6569 24.6323C95.9027 24.0592 94.2585 22.9228 93.3206 20.9441C92.4447 19.0964 92.3453 18.2265 92.3499 12.4494C92.3538 7.89484 92.4082 6.84555 92.6957 5.7924C93.6523 2.28788 95.8715 0.642498 100.254 0.18872C101.119 0.0991234 105.135 0.0531665 109.179 0.0863792C114.957 0.134074 116.81 0.210927 117.832 0.445926ZM99.9966 8.25515C100.107 7.86008 100.387 7.40398 100.619 7.24139C100.98 6.9894 102.083 6.94615 108.147 6.94615H115.252L115.795 7.41209L116.337 7.87823V12.546V17.2137L115.795 17.6798L115.252 18.1458L108.249 18.1429C100.533 18.1398 100.441 18.1269 100.047 16.9822C99.7563 16.1364 99.7162 9.26293 99.9966 8.25515Z" fill="currentColor" />
		<path d="M132.641 0.248775C132.775 0.335282 134.839 4.34725 137.229 9.16387C139.619 13.9807 141.656 17.9724 141.756 18.0344C142.172 18.2908 142.541 17.8341 143.43 15.9644C143.945 14.8809 145.362 11.9522 146.579 9.45641C147.796 6.96063 149.296 3.86065 149.913 2.56748L151.035 0.216334L151.874 0.091011C152.335 0.0220754 154.087 -0.0061178 155.767 0.0284466C158.191 0.0782656 158.858 0.149519 158.997 0.373897C159.216 0.729196 148.649 21.7998 147.565 23.1688C146.371 24.6763 145.666 24.9042 142.197 24.9042C138.954 24.9042 138.451 24.7866 137.272 23.7531C136.336 22.9332 135.777 21.9701 132.396 15.3459C130.824 12.266 129.474 9.65916 129.397 9.55296C128.983 8.98545 124.947 0.803731 124.947 0.533588C124.947 0.358063 125.143 0.173462 125.383 0.123257C126.107 -0.0287107 132.379 0.0796215 132.641 0.248775Z" fill="currentColor" />
		
	</g>
	</symbol>
	<symbol id="svg-eye" viewBox="0 0 18 12">
		<g>

			<path
				d="M8.98794 1.83997C6.70211 1.83384 4.88553 3.70283 4.88553 6.0107C4.88553 8.29839 6.70839 10.1707 8.98124 10.1707C11.2522 10.1707 13.0823 8.30569 13.0823 6.01606C13.0823 3.70884 11.2669 1.8407 8.98794 1.83997ZM8.98794 1.83997L8.9866 2.33997V1.83997C8.98705 1.83997 8.9875 1.83997 8.98794 1.83997ZM4.811 2.58722L4.81183 2.58672C7.57688 0.930733 10.3391 0.951488 13.1548 2.50952L13.155 2.50967C14.4698 3.23613 15.5978 4.23048 16.6629 5.34295C16.8784 5.56912 17.0907 5.79904 17.3063 6.03319C15.8705 7.45872 14.4728 8.78455 12.7309 9.66975C9.86437 11.1258 7.0994 10.9621 4.38864 9.24311L4.38812 9.24278C3.44311 8.64512 2.61638 7.89333 1.78625 7.07916L1.78627 7.07913L1.78166 7.07472C1.41905 6.72805 1.07369 6.36841 0.711833 5.99158C0.708816 5.98844 0.705797 5.9853 0.702778 5.98216C1.99719 4.70853 3.28372 3.49789 4.811 2.58722Z"
				stroke="white" />
			<path
				d="M5.38574 6.0096C5.38574 3.96792 6.988 2.33887 8.98681 2.33887C10.9803 2.33887 12.5825 3.97864 12.5825 6.01496C12.5825 8.03521 10.9749 9.66962 8.98145 9.66962C6.99336 9.66426 5.38574 8.02985 5.38574 6.0096ZM11.0553 5.75774C10.3319 6.09534 9.81742 6.05783 9.378 5.62913C8.92787 5.19508 8.89571 4.69671 9.24939 3.88754C8.50453 3.71606 7.59354 4.17156 7.1702 4.92714C6.69863 5.7631 6.8326 6.81877 7.50244 7.50469C8.15085 8.16917 9.15293 8.31922 9.97818 7.8798C10.7338 7.4779 11.216 6.53476 11.0553 5.75774Z"
				fill="#2A2A2A" />
			<path
				d="M11.0562 5.75832C11.217 6.52998 10.7401 7.47848 9.97377 7.88574C9.14853 8.32516 8.1518 8.17511 7.49804 7.51063C6.82819 6.82471 6.68887 5.76904 7.16579 4.93308C7.59449 4.1775 8.50548 3.722 9.24498 3.89348C8.89131 4.70265 8.92346 5.20101 9.37359 5.63507C9.81301 6.05841 10.3274 6.09592 11.0562 5.75832Z"
				fill="white" />
			

		</g>
	</symbol>
	<symbol id="svg-arrow-down" viewBox="0 0 18 22">
		<g>
			<path d="M17 12L9 20L1 12" stroke="currentColor" stroke-width="2" />
			<path d="M9 20L9 0" stroke="currentColor" stroke-width="2" />
		</g>
	</symbol>
	<symbol id="svg-chevron" viewBox="0 0 31 24">
		<g>

			<path d="M6.71429 21.5L3 11.6481L7 2.5" stroke="currentColor" stroke-width="4"
				stroke-linecap="round" />
			<path d="M28.7143 21.5L25 11.6481L29 2.5" stroke="currentColor" stroke-width="4"
				stroke-linecap="round" />
			
		</g>
	</symbol>
	<symbol id="svg-ten" viewBox="0 0 196 45">
		<g>
			<path d="M14.6236 8.07545H22.2164V41.3015H12.7956V17.9483L2.20312 22.8848V13.8663L14.6236 8.07545ZM35.3468 37.2669C32.066 34.1975 30.4255 30.0046 30.4255 24.6885C30.4255 19.3723 32.066 15.1795 35.3468 12.11C38.659 9.04061 43.0647 7.50586 48.5641 7.50586C54.0634 7.50586 58.4535 9.04061 61.7342 12.11C65.0467 15.1795 66.7023 19.3723 66.7023 24.6885C66.7023 30.0046 65.0467 34.1975 61.7342 37.2669C58.4535 40.3363 54.0634 41.8711 48.5641 41.8711C43.0647 41.8711 38.659 40.3363 35.3468 37.2669ZM42.2367 17.8059C40.6431 19.4198 39.8463 21.714 39.8463 24.6885C39.8463 27.663 40.6431 29.973 42.2367 31.6185C43.8302 33.2323 45.9394 34.0392 48.5641 34.0392C51.1888 34.0392 53.2979 33.2323 54.8914 31.6185C56.485 29.973 57.2818 27.663 57.2818 24.6885C57.2818 21.714 56.485 19.4198 54.8914 17.8059C53.2979 16.1605 51.1888 15.3377 48.5641 15.3377C45.9394 15.3377 43.8302 16.1605 42.2367 17.8059Z" fill="#D6D6D6" />
			<path d="M87.824 9.86328H117.522V40.0688H108.66V17.1989H95.8345C95.7778 18.0044 95.7066 19.1838 95.6214 20.7373C95.4796 23.24 95.3518 25.0955 95.2379 26.3037C95.1527 27.4831 94.9683 28.9934 94.684 30.8345C94.4284 32.6756 94.0589 34.042 93.5762 34.9338C93.1215 35.7968 92.497 36.7174 91.7014 37.6955C90.9344 38.6736 89.9545 39.3496 88.7614 39.7236C87.5684 40.0976 86.1623 40.2845 84.5431 40.2845C83.4067 40.2845 81.8728 40.2126 79.9414 40.0688V32.7763C80.8502 32.8914 81.6031 32.9489 82.1997 32.9489C82.8248 32.9489 83.3641 32.8626 83.8188 32.69C84.3015 32.4886 84.7136 32.1578 85.0544 31.6975C85.4239 31.2372 85.7222 30.7482 85.9492 30.2304C86.2049 29.7126 86.4179 29.0078 86.5884 28.116C86.7588 27.2242 86.8866 26.3756 86.9718 25.5701C87.0857 24.7359 87.1709 23.6571 87.2275 22.3338C87.3127 21.0105 87.3693 19.8023 87.3979 18.7092C87.4545 17.616 87.5118 16.2208 87.5684 14.5236C87.6536 12.7975 87.7388 11.2441 87.824 9.86328ZM125.548 40.0688V9.86328H155.928V16.8537H134.411V21.4277H151.198V27.9866H134.411V33.0784H156.737V40.0688H125.548ZM160.585 17.1989V9.86328H194.587V17.1989H182.017V40.0688H173.155V17.1989H160.585Z" fill="#D6D6D6" />

		</g>
	</symbol>
	<symbol id="svg-check" viewBox="0 0 19 18">
		<g>
			
			<path d="M1.57812 8.76428L8.76492 16L17.4652 1.5" stroke="currentColor" stroke-width="2" stroke-linecap="round" />
			
		</g>
	</symbol>
	<symbol id="svg-cross" viewBox="0 0 16 13">
		<g>
			  <path d="M2.25821 1.03046L13.7572 11.9696" stroke="currentColor"  stroke-width="2" stroke-linecap="round" />
  				<path d="M2 11.9072L14 1.09277" stroke="currentColor" stroke-width="2" stroke-linecap="round" />
		</g>
	</symbol>
	<symbol id="arr-left" viewBox="0 0 22 72">
		<g>
			  <path d="M18.2058 2L3 36.8501L19.3755 69.2109" stroke="currentColor" stroke-width="4" stroke-linecap="round"/>
		</g>
	</symbol>
	<symbol id="arr-right" viewBox="0 0 22 72">
		<g>
			<path d="M3.79418 2L19 36.8501L2.6245 69.2109" stroke="currentColor" stroke-width="4" stroke-linecap="round"/>
		</g>
	</symbol>
</svg>